Coordinates
version=1
nRows=11
nColumns=40
inDegrees=yes

Units are S.I. units (second, meters, Newtons, ...)
If the header above contains a line with 'inDegrees', this indicates whether rotational values are in degrees (yes) or radians (no).

endheader
time	pelvis_tilt	pelvis_list	pelvis_rotation	pelvis_tx	pelvis_ty	pelvis_tz	hip_flexion_r	hip_adduction_r	hip_rotation_r	knee_angle_r	knee_angle_r_beta	ankle_angle_r	subtalar_angle_r	mtp_angle_r	hip_flexion_l	hip_adduction_l	hip_rotation_l	knee_angle_l	knee_angle_l_beta	ankle_angle_l	subtalar_angle_l	mtp_angle_l	lumbar_extension	lumbar_bending	lumbar_rotation	arm_flex_r	arm_add_r	arm_rot_r	elbow_flex_r	pro_sup_r	wrist_flex_r	wrist_dev_r	arm_flex_l	arm_add_l	arm_rot_l	elbow_flex_l	pro_sup_l	wrist_flex_l	wrist_dev_l
     11.70000000	    -23.25163718	     -1.54187295	     22.04877948	      0.08560128	      1.28250641	     -0.03166999	     44.00208476	    -20.57715606	    -16.02031847	     41.75741462	      0.72880437	    -17.74284505	    -22.89054467	      0.00000000	     84.50381969	     -2.29509777	      1.14325176	     96.59655517	      1.68592793	     10.19711304	    -16.13231377	      0.00000000	    -43.95043911	      2.75519894	     -7.37902325	     53.29595770	     17.85027877	    -46.21187967	     55.28116210	      1.02695477	      0.00000000	      0.00000000	     51.90591507	     11.00175747	    -21.94651190	     44.28266626	      4.54670724	      0.00000000	      0.00000000
     11.71700000	    -22.84631804	     -1.71630073	     21.47704910	      0.08637445	      1.28281936	     -0.03139527	     44.63601453	    -20.11299790	    -14.61336179	     45.75197971	      0.79852269	    -15.96227529	    -24.13126600	      0.00000000	     83.53725710	     -2.50950790	      1.37972275	     93.20415934	      1.62671946	     10.42805415	    -16.72906169	      0.00000000	    -44.30264337	      2.86712674	     -6.82118128	     53.68810722	     17.94807965	    -46.21294603	     55.20394616	      1.00546493	      0.00000000	      0.00000000	     51.92619046	     10.95866826	    -22.11853743	     44.40388716	      4.73473559	      0.00000000	      0.00000000
     11.73300000	    -22.84030315	     -1.44732175	     20.35586825	      0.08685672	      1.28287727	     -0.03019686	     46.33536092	    -19.70250196	    -12.00892976	     50.46659179	      0.88080819	    -14.42733357	    -25.47803766	      0.00000000	     82.29369370	     -3.06104891	      1.03477146	     89.17160409	      1.55633809	     10.03479270	    -17.58145494	      0.00000000	    -44.42118903	      2.14832639	     -6.28772672	     54.09195184	     18.14760365	    -46.33554614	     55.15332847	      1.05718950	      0.00000000	      0.00000000	     51.96356472	     10.90943090	    -22.29634751	     44.57071320	      4.71951009	      0.00000000	      0.00000000
     11.75000000	    -22.55057267	     -1.44484530	     19.26009925	      0.08735631	      1.28324229	     -0.02897092	     48.07946005	    -19.05323572	     -9.66457214	     55.52077484	      0.96902032	    -13.14787216	    -26.35647833	      0.00000000	     80.68766184	     -3.69525203	      1.09511629	     85.06776024	      1.48471250	      9.08069673	    -18.15883049	      0.00000000	    -44.69278868	      1.78243692	     -5.52846397	     54.49700631	     18.35110178	    -46.33502285	     55.14942997	      1.06222646	      0.00000000	      0.00000000	     51.98463719	     10.88046114	    -22.55151892	     44.71661267	      4.37088769	      0.00000000	      0.00000000
     11.76700000	    -22.14695814	     -1.41063808	     18.07977003	      0.08772829	      1.28388596	     -0.02751973	     50.24262781	    -18.32798792	     -7.06208213	     61.14779389	      1.06723033	    -12.23635172	    -26.63297201	      0.00000000	     78.72385389	     -4.44909686	      1.16976712	     80.83934565	      1.41091275	      7.42353447	    -18.51417280	      0.00000000	    -45.06875991	      1.38423530	     -4.72362439	     54.85666696	     18.59906229	    -46.20274413	     55.18207515	      1.07682735	      0.00000000	      0.00000000	     52.02925262	     10.90259721	    -23.09591289	     44.86239818	      4.19596237	      0.00000000	      0.00000000
     11.78300000	    -21.75305243	     -1.33517223	     16.75374162	      0.08801099	      1.28451313	     -0.02572766	     52.83997099	    -17.44692502	     -4.19721698	     67.09946265	      1.17110655	    -11.72523350	    -26.27051967	      0.00000000	     76.47731378	     -5.35522089	      1.11217598	     76.41944399	      1.33377091	      5.25465770	    -18.80462759	      0.00000000	    -45.41606260	      0.85578777	     -3.84433716	     55.16543127	     18.87347123	    -46.02558924	     55.26364173	      1.09290470	      0.00000000	      0.00000000	     52.05228081	     10.96941855	    -23.76975998	     44.98235732	      4.13735946	      0.00000000	      0.00000000
     11.80000000	    -21.34170638	     -1.33221871	     15.37923799	      0.08824718	      1.28518925	     -0.02384577	     55.42480349	    -16.45699598	     -1.71493012	     72.62382660	      1.26752489	    -11.46462100	    -25.60756619	      0.00000000	     73.99308334	     -6.29242613	      1.10985752	     71.98354282	      1.25634983	      2.92950935	    -18.80845983	      0.00000000	    -45.77559611	      0.38306984	     -2.89619442	     55.46537441	     19.11021783	    -45.75080809	     55.28505270	      1.10618450	      0.00000000	      0.00000000	     52.05739694	     11.04867464	    -24.48425236	     45.12902313	      4.14919065	      0.00000000	      0.00000000
     11.81700000	    -21.00569796	     -1.38450626	     13.92257370	      0.08844161	      1.28570064	     -0.02190693	     58.09121112	    -15.40676669	      0.41900580	     77.63632969	      1.35500957	    -11.44944023	    -24.79632606	      0.00000000	     71.29584472	     -7.27636313	      1.07633504	     67.47080253	      1.17758765	      0.53627742	    -18.39682402	      0.00000000	    -46.06256673	     -0.07570605	     -1.88282276	     55.72687904	     19.27295852	    -45.37984911	     55.26279731	      1.11551654	      0.00000000	      0.00000000	     52.03787116	     11.10402830	    -25.15748035	     45.27084253	      4.18656270	      0.00000000	      0.00000000
     11.83300000	    -20.69179347	     -1.49336533	     12.40905910	      0.08857689	      1.28615071	     -0.01990676	     60.85034377	    -14.24218716	      2.32597878	     82.30286176	      1.43645592	    -11.60254558	    -23.94930088	      0.00000000	     68.38040884	     -8.30689515	      0.96243904	     62.90025306	      1.09781652	     -1.97308992	    -17.71198051	      0.00000000	    -46.32863742	     -0.50467777	     -0.80709214	     55.96212818	     19.41198610	    -44.94545903	     55.20433241	      1.13346991	      0.00000000	      0.00000000	     51.99707900	     11.17292682	    -25.82399170	     45.40091962	      4.24098593	      0.00000000	      0.00000000
     11.85000000	    -20.41523566	     -1.73316489	     10.96619306	      0.08863522	      1.28651894	     -0.01801621	     63.53789944	    -13.02018424	      3.85999901	     86.46849096	      1.50915987	    -11.55131781	    -23.29536478	      0.00000000	     65.47821720	     -9.37446885	      0.67747001	     58.58562809	      1.02251210	     -4.62506744	    -16.99667869	      0.00000000	    -46.54240074	     -0.79886031	      0.31529502	     56.19496095	     19.55231188	    -44.52760756	     55.14937277	      1.15332674	      0.00000000	      0.00000000	     51.93174202	     11.25831589	    -26.51394317	     45.54962107	      4.23311348	      0.00000000	      0.00000000
     11.86700000	    -20.33304667	     -1.81013019	      9.28465196	      0.08859688	      1.28659829	     -0.01588578	     66.43441935	    -11.62231374	      5.55291715	     90.18680311	      1.57405666	    -11.00023306	    -22.36881313	      0.00000000	     62.52453526	    -10.59355560	     -0.42380894	     54.59042672	      0.95278269	     -6.82654781	    -16.74482398	      0.00000000	    -46.60667792	     -1.42750287	      1.49007448	     56.42135225	     19.72636325	    -44.25093946	     55.11015304	      1.16877751	      0.00000000	      0.00000000	     51.82632721	     11.38638058	    -27.24666644	     45.70481197	      4.51767175	      0.00000000	      0.00000000
